<?xml version="1.0" standalone="no"?>
<!DOCTYPE svg PUBLIC "-//W3C//DTD SVG 20010904//EN"
 "http://www.w3.org/TR/2001/REC-SVG-20010904/DTD/svg10.dtd">
<svg version="1.0" xmlns="http://www.w3.org/2000/svg"
 width="1080.000000pt" height="1080.000000pt" viewBox="0 0 1080.000000 1080.000000"
 preserveAspectRatio="xMidYMid meet">
<metadata>
Created by potrace 1.11, written by Peter Selinger 2001-2013
</metadata>
<g transform="translate(0.000000,1080.000000) scale(0.100000,-0.100000)"
fill="#000000" stroke="none">
<path d="M2892 8556 c-7 -6 -21 -19 -30 -28 -9 -10 -22 -18 -28 -18 -18 0 -74
-49 -74 -65 0 -7 -27 -30 -60 -51 -32 -20 -57 -41 -54 -46 3 -4 -26 -28 -63
-52 -48 -31 -86 -67 -131 -125 -34 -44 -66 -81 -70 -81 -4 0 -13 -12 -19 -27
-7 -16 -33 -50 -58 -77 -24 -27 -52 -66 -61 -85 -9 -20 -40 -72 -69 -116 -28
-44 -77 -132 -108 -195 -46 -92 -58 -127 -61 -175 -6 -90 -33 -187 -51 -186
-6 0 -13 17 -17 38 -3 21 -16 65 -28 98 -14 39 -19 71 -15 90 4 17 9 44 12 60
3 17 9 35 14 41 5 6 6 13 3 16 -6 7 16 89 28 103 4 5 8 17 8 27 0 22 41 108
52 108 4 0 8 15 8 34 0 24 11 49 37 83 39 50 63 120 55 159 -4 20 -10 24 -42
24 -31 0 -45 -8 -82 -45 -26 -26 -62 -78 -83 -123 -21 -42 -51 -91 -67 -107
-34 -35 -108 -213 -108 -259 0 -17 -9 -49 -20 -70 -22 -44 -28 -82 -36 -211
-11 -189 -12 -214 -3 -259 5 -26 11 -69 14 -97 3 -28 15 -78 25 -112 11 -34
20 -71 20 -82 0 -11 12 -47 27 -80 14 -33 27 -78 28 -100 1 -22 9 -55 19 -72
9 -18 14 -33 11 -33 -3 0 6 -17 19 -37 13 -21 32 -63 41 -93 10 -30 24 -77 33
-105 8 -27 18 -54 22 -60 4 -5 16 -39 28 -75 96 -299 127 -376 215 -535 118
-214 118 -214 99 -223 -31 -16 -137 9 -185 43 -12 8 -28 15 -37 15 -8 0 -31
13 -50 28 -19 16 -75 49 -124 73 -105 52 -163 111 -207 212 -17 37 -50 96 -75
131 -25 36 -58 103 -75 153 -18 48 -35 93 -39 98 -9 12 -22 68 -26 110 -4 50
-14 95 -26 118 -6 12 -14 29 -18 37 -4 8 -19 19 -34 24 -36 13 -51 -4 -49 -56
1 -23 -2 -47 -7 -54 -14 -16 -13 -48 4 -134 9 -41 18 -111 22 -155 4 -44 13
-89 20 -100 6 -11 12 -31 12 -45 0 -47 35 -145 83 -231 27 -47 49 -92 49 -101
0 -9 4 -18 8 -20 5 -1 35 -48 67 -103 66 -113 124 -181 206 -245 18 -14 40
-33 50 -42 10 -9 42 -27 71 -40 77 -32 119 -59 112 -70 -4 -5 -13 -3 -22 5
-19 17 -118 47 -154 47 -38 0 -77 -40 -78 -80 -1 -19 -2 -40 -1 -46 1 -11 116
-40 136 -35 67 18 175 -1 175 -30 0 -7 -7 -8 -17 -4 -97 40 -210 -29 -227
-139 l-6 -35 78 6 c94 7 159 33 172 68 15 40 38 42 68 4 15 -18 48 -54 75 -79
26 -25 47 -48 47 -52 0 -3 -32 -8 -71 -10 -67 -5 -74 -8 -110 -44 -60 -62 -50
-86 43 -108 46 -10 73 -12 107 -7 5 0 26 24 47 51 21 28 45 50 54 50 15 0 110
-94 110 -109 0 -3 -15 -6 -32 -5 -18 0 -44 -4 -58 -8 -35 -12 -106 -78 -112
-105 -11 -41 10 -53 97 -54 44 -1 85 -1 91 0 18 2 73 62 69 74 -3 7 -1 19 5
27 8 12 13 11 39 -8 17 -12 34 -22 39 -22 5 0 17 -10 28 -21 10 -12 37 -31 59
-41 68 -33 88 -46 98 -63 7 -14 5 -16 -15 -15 -43 4 -49 0 -109 -57 -56 -55
-71 -81 -49 -84 6 -1 13 -2 18 -3 4 -2 38 -6 75 -10 87 -11 153 11 163 52 4
15 8 30 11 34 5 9 63 -11 63 -22 0 -4 26 -18 58 -31 31 -13 67 -28 80 -35 l23
-12 -22 -21 c-13 -12 -26 -21 -30 -21 -12 0 -27 -56 -22 -82 3 -17 0 -27 -11
-31 -12 -5 -16 0 -16 19 0 29 -27 74 -45 74 -7 0 -24 -9 -39 -21 -41 -33 -35
-65 26 -121 28 -26 49 -50 46 -54 -12 -11 -97 9 -114 27 -13 15 -18 37 -18 83
l0 64 -35 5 c-41 5 -91 -19 -91 -43 0 -9 16 -31 35 -50 19 -19 35 -38 35 -43
0 -12 -93 -2 -97 10 -2 5 -18 26 -36 45 -41 45 -87 46 -123 2 -13 -16 -23 -31
-24 -34 0 -3 16 -22 35 -41 27 -29 40 -35 67 -33 70 6 84 6 106 -1 31 -10 28
-23 -5 -17 -30 6 -93 -24 -93 -45 0 -14 7 -14 -277 -17 -90 -1 -163 1 -163 4
0 3 17 13 38 22 20 10 55 34 77 54 22 20 50 43 63 51 67 45 -30 86 -118 49
-19 -7 -57 -17 -85 -21 -27 -3 -70 -12 -95 -20 -43 -13 -120 -32 -167 -41 -12
-2 -34 -9 -48 -14 -15 -6 -38 -10 -52 -10 -24 0 -75 -13 -170 -41 -18 -6 -42
-12 -55 -14 -12 -3 -28 -11 -37 -19 -12 -13 -12 -18 -1 -31 27 -33 96 -71 150
-84 90 -21 190 -53 190 -61 0 -4 17 -10 38 -13 20 -3 60 -11 87 -17 28 -7 57
-13 65 -14 26 -5 102 -27 178 -52 92 -31 141 -23 142 22 0 12 -56 53 -117 86
-24 12 -43 26 -43 30 0 4 -6 8 -14 8 -11 0 -31 27 -23 31 1 1 148 3 326 5 223
2 328 0 337 -7 15 -12 64 -14 104 -4 14 4 48 8 76 10 41 3 55 0 69 -15 13 -15
28 -18 67 -15 28 1 54 8 58 15 4 6 28 14 54 16 45 4 52 -1 46 -31 -1 -5 -2
-39 -2 -76 0 -43 -7 -80 -19 -105 -24 -52 -24 -95 2 -139 13 -21 19 -44 15
-58 -7 -26 12 -93 31 -108 27 -23 82 84 83 161 0 15 19 49 46 82 50 61 93 85
173 94 49 5 118 37 182 83 34 25 45 28 99 25 34 -2 66 -6 71 -9 15 -10 10 -45
-6 -45 -10 0 -15 -11 -16 -32 -1 -18 -2 -47 -3 -65 -1 -17 -5 -35 -9 -40 -12
-11 -37 26 -37 53 0 17 -9 24 -42 33 -70 18 -114 20 -143 5 -15 -8 -34 -14
-41 -14 -20 0 -17 -24 4 -44 27 -24 132 -76 154 -76 16 0 17 -3 7 -22 -7 -13
-12 -35 -11 -50 2 -30 -13 -42 -69 -53 -20 -4 -48 -19 -63 -36 -15 -16 -32
-29 -37 -29 -5 0 -9 -6 -9 -13 0 -7 -20 -26 -44 -41 -47 -30 -65 -55 -41 -57
55 -3 73 -1 95 13 14 9 47 19 73 23 47 6 82 30 107 75 7 13 14 11 48 -8 22
-12 58 -24 79 -26 21 -3 41 -5 44 -5 12 -2 31 -59 29 -88 -4 -52 0 -63 24 -73
13 -5 38 -22 54 -39 28 -26 37 -29 99 -30 42 0 70 4 75 12 12 19 9 27 -11 27
-39 0 -97 64 -85 94 7 19 61 37 91 32 26 -5 99 -54 126 -84 17 -19 17 -21 -8
-68 -26 -48 -26 -49 -7 -65 11 -8 34 -14 51 -13 26 2 31 -2 30 -19 -1 -51 -13
-62 -65 -62 l-49 0 -3 -37 c-2 -22 1 -39 7 -39 26 -3 30 -4 35 -10 3 -3 -5
-16 -19 -29 -30 -28 -31 -41 -7 -57 15 -9 24 -7 46 10 15 12 28 30 30 39 1 10
16 35 34 57 18 22 32 44 32 49 0 5 15 32 33 58 19 27 36 56 40 64 3 8 6 -12 6
-45 1 -42 -5 -71 -18 -95 -11 -19 -25 -46 -31 -60 -15 -33 -50 -70 -66 -70
-20 0 -35 -35 -22 -48 18 -18 38 -14 63 11 12 12 34 33 49 46 l26 23 0 -27 c0
-18 4 -24 13 -18 6 4 17 8 22 8 15 0 32 110 35 220 l1 60 34 -95 c21 -57 33
-105 29 -119 -8 -35 39 -81 83 -81 29 0 33 3 33 25 0 16 -12 36 -31 53 -17 15
-34 44 -40 67 -6 22 -15 58 -20 80 -6 21 -14 44 -20 51 -15 18 -46 118 -42
132 6 16 38 15 52 -2 9 -11 10 -25 2 -50 -8 -32 -7 -38 15 -55 14 -11 48 -24
76 -30 61 -14 108 -1 154 42 33 30 47 23 39 -19 -2 -11 -4 -25 -4 -31 -1 -7
-13 -13 -28 -13 -29 0 -103 -30 -103 -41 0 -4 -8 -15 -17 -25 -10 -10 -18 -25
-18 -33 0 -9 -3 -21 -7 -27 -7 -11 -3 -52 6 -62 3 -2 13 -1 23 3 10 5 32 10
48 12 17 3 40 11 52 19 29 18 30 18 37 -12 9 -33 -12 -50 -73 -58 -46 -6 -81
-29 -81 -53 0 -7 -7 -13 -15 -13 -8 0 -16 -10 -16 -22 -3 -51 4 -113 13 -119
32 -20 164 58 176 103 5 21 22 24 22 4 0 -28 74 -124 99 -129 38 -8 94 16 109
46 19 39 0 66 -84 126 -48 34 -75 60 -82 80 -6 17 -9 31 -6 31 3 0 27 -18 53
-40 39 -33 55 -40 90 -40 46 0 105 26 135 59 14 15 22 18 32 10 7 -5 23 -8 36
-6 49 8 148 78 148 105 0 9 12 33 27 54 19 28 29 35 34 26 5 -7 6 -20 4 -29
-3 -9 4 -26 15 -39 11 -13 20 -27 20 -31 0 -12 90 -102 123 -122 l27 -18 16
34 c16 32 15 38 -5 92 -19 51 -20 60 -7 73 13 13 17 13 31 -2 9 -9 30 -23 45
-31 24 -12 41 -37 45 -65 0 -3 7 -20 15 -38 14 -32 17 -33 53 -28 24 4 47 16
61 33 22 25 25 26 55 14 29 -13 63 -11 104 4 27 11 22 -32 -5 -46 -30 -16 -34
-23 -58 -99 -20 -66 -24 -91 -22 -122 4 -35 115 -2 152 44 27 35 50 91 50 123
0 17 4 24 11 19 12 -7 7 -105 -9 -159 -5 -16 -5 -39 -1 -50 4 -11 10 -33 14
-49 6 -28 7 -28 62 -23 53 5 61 10 82 47 10 17 6 83 -6 103 -4 6 -8 21 -9 32
-1 11 -3 27 -5 35 -3 12 10 15 71 15 60 0 82 4 111 23 47 28 64 48 49 57 -5 3
-10 16 -10 28 0 17 -2 19 -9 8 -7 -11 -11 -10 -20 6 -14 27 -80 53 -133 53
-34 0 -46 -6 -75 -36 -32 -34 -35 -35 -63 -24 -36 15 -37 23 -7 37 25 12 98
40 109 42 38 6 98 51 131 96 20 30 37 57 37 62 0 4 7 20 15 36 8 15 16 48 19
73 3 25 8 50 12 55 10 17 25 -2 24 -29 -6 -86 13 -105 68 -72 l30 18 22 -30
c19 -26 21 -33 9 -42 -22 -17 -22 -44 1 -56 16 -9 25 -8 36 1 13 11 18 6 15
-15 -3 -17 30 -56 47 -56 10 0 28 10 40 22 20 22 22 26 22 49 0 8 5 8 15 -1 8
-7 15 -16 15 -21 0 -4 12 -25 26 -46 18 -28 22 -39 12 -42 -35 -11 -48 -60
-23 -81 12 -10 19 -9 38 3 28 18 44 11 48 -23 3 -20 10 -25 35 -25 34 -1 36
10 9 70 -8 17 -24 53 -36 80 -13 28 -27 53 -33 57 -6 4 -8 8 -4 8 4 0 -8 24
-27 54 -29 45 -31 53 -15 49 31 -8 95 -76 115 -121 11 -23 23 -42 28 -42 4 0
6 -4 2 -9 -3 -5 -1 -12 4 -15 5 -3 7 -24 4 -46 -5 -37 -4 -40 18 -40 47 1 63
26 46 70 -16 43 -15 60 3 60 10 0 22 9 25 20 8 26 -31 74 -97 120 -27 18 -48
34 -48 34 0 1 30 1 66 0 44 0 68 -5 74 -14 25 -41 115 2 108 52 -2 18 -10 24
-36 26 -19 2 -44 -4 -58 -13 -13 -8 -24 -11 -24 -6 0 14 -116 48 -190 56 -126
14 -201 30 -210 45 -4 6 -14 12 -22 14 -21 3 -49 26 -43 36 2 4 37 5 77 3 51
-3 79 -9 93 -22 21 -19 105 -61 121 -61 14 0 52 42 54 60 5 38 1 41 -36 25
-44 -18 -46 -18 -42 -2 8 44 -27 71 -86 63 -16 -1 -48 1 -70 6 -23 5 -52 11
-66 12 -14 1 -24 8 -22 15 1 6 -2 21 -8 31 -8 14 -8 20 1 20 14 0 68 -30 94
-52 20 -17 23 -17 60 0 22 10 72 29 110 42 39 12 75 26 80 31 6 4 33 15 60 24
28 10 56 22 63 27 17 15 15 38 -5 45 -21 8 -32 16 -102 82 -30 29 -51 57 -48
64 3 8 -3 33 -14 57 -10 23 -19 43 -19 44 0 1 10 2 23 3 43 2 63 -6 64 -28 4
-47 73 -79 178 -83 22 0 49 -6 60 -13 11 -6 22 -11 25 -10 3 0 16 -6 30 -15
94 -57 134 -83 146 -95 7 -8 15 -13 16 -13 2 1 17 -4 33 -10 17 -7 47 -14 68
-17 20 -3 37 -11 37 -17 0 -6 5 -4 10 4 6 10 10 11 10 3 0 -7 8 -13 18 -13 14
0 15 2 2 10 -9 6 -10 10 -3 10 6 0 15 -5 18 -10 4 -7 53 -10 125 -9 102 1 121
4 136 20 33 36 12 61 -98 119 -57 29 -115 61 -130 71 -14 11 -30 19 -35 19 -6
0 -18 9 -27 19 -10 11 -34 27 -53 36 -24 11 -31 20 -24 25 26 15 125 -8 172
-41 14 -10 28 -16 31 -13 3 2 11 -2 18 -11 7 -8 19 -15 26 -15 8 0 14 -3 14
-7 0 -5 19 -17 43 -28 23 -11 48 -26 55 -32 7 -7 18 -13 23 -13 5 0 29 -16 55
-35 25 -19 50 -35 56 -35 5 0 23 -9 39 -21 33 -23 149 -34 182 -17 30 15 20
43 -25 68 -24 14 -55 31 -69 40 -113 66 -180 107 -214 129 -22 14 -49 30 -60
36 -17 8 -13 10 24 13 34 2 59 -4 110 -29 36 -18 68 -35 71 -39 3 -4 25 -18
50 -30 39 -20 61 -37 129 -100 16 -15 97 -54 116 -56 5 0 26 -4 45 -7 67 -13
139 -13 161 -2 21 12 21 12 -14 48 -20 19 -50 38 -66 42 -17 4 -31 11 -31 16
0 5 -5 9 -11 9 -6 0 -25 11 -43 25 -18 14 -36 25 -40 25 -3 0 -33 18 -65 40
-32 22 -62 40 -65 40 -4 0 -14 7 -22 15 -14 13 -12 15 13 16 56 2 79 -4 133
-35 30 -17 67 -38 83 -45 15 -8 27 -18 27 -23 0 -4 6 -8 14 -8 8 0 27 -10 43
-23 15 -12 53 -36 83 -51 30 -16 73 -41 95 -56 41 -27 122 -53 137 -44 4 3 53
5 109 5 106 0 194 13 205 30 9 15 -19 41 -73 69 -26 14 -70 41 -98 60 -27 19
-85 53 -128 75 -42 22 -76 44 -74 50 2 5 25 16 50 23 54 15 73 40 52 68 -11
16 -28 19 -97 21 -46 0 -87 2 -91 2 -11 1 84 101 96 101 5 0 32 22 60 49 51
48 116 100 170 134 19 12 27 26 27 46 0 53 -32 62 -165 47 -33 -4 -78 -9 -100
-11 -46 -4 -135 -40 -135 -54 0 -5 -29 -31 -65 -57 -36 -26 -65 -51 -65 -56 0
-4 -5 -8 -10 -8 -6 0 -21 -9 -33 -21 -12 -11 -53 -46 -92 -77 -38 -31 -71 -60
-73 -64 -2 -5 -8 -8 -14 -8 -6 0 -17 -8 -24 -17 -9 -14 -28 -18 -78 -19 -64
-1 -81 6 -52 23 8 4 51 43 97 85 46 42 97 87 112 100 121 100 143 131 117 163
-25 30 -145 5 -190 -40 -119 -118 -210 -205 -217 -205 -5 0 -23 -13 -41 -30
-18 -16 -49 -42 -70 -57 -20 -15 -39 -31 -42 -35 -5 -6 -127 -5 -163 1 -13 2
257 223 333 272 51 33 91 80 88 102 -3 19 -10 22 -50 25 -84 5 -138 -19 -215
-95 -72 -70 -150 -138 -215 -186 -37 -27 -37 -27 -48 -7 -14 27 7 62 53 90 18
11 44 31 60 45 15 14 46 37 70 51 63 40 69 61 24 81 -22 10 -217 9 -290 -2
-32 -5 -39 -2 -46 18 -5 13 -7 35 -4 50 3 15 1 27 -3 28 -5 0 -31 3 -59 5 -73
7 -79 21 -10 25 22 2 47 6 55 10 55 28 188 89 193 89 9 0 78 48 109 75 14 13
41 53 58 90 29 61 30 68 16 89 -29 45 -44 54 -78 50 -64 -10 -78 -13 -87 -19
-13 -8 -111 53 -111 70 0 11 61 43 95 50 6 2 40 16 76 33 36 17 76 33 90 36
53 12 76 14 90 6 8 -6 25 -2 44 9 16 10 53 27 80 36 28 10 61 26 75 35 14 10
62 29 107 44 50 17 80 32 78 39 -2 7 21 32 53 57 62 49 152 140 152 154 0 4
14 25 30 46 17 21 30 41 30 44 0 4 21 38 46 77 25 38 51 87 58 107 8 21 26 62
42 92 16 30 30 59 31 65 2 5 14 53 29 105 14 52 28 113 30 135 4 46 10 82 24
175 6 36 8 94 4 130 -4 36 -6 73 -6 82 1 30 -23 41 -62 28 -33 -11 -42 -25
-53 -85 -1 -11 -10 -42 -19 -69 -8 -27 -18 -68 -20 -90 -3 -23 -9 -42 -15 -44
-5 -2 -9 -7 -9 -12 0 -5 -5 -21 -12 -37 -6 -15 -12 -32 -14 -38 -11 -37 -32
-86 -51 -118 -13 -21 -23 -40 -23 -43 0 -3 -8 -16 -17 -31 -10 -14 -19 -35
-20 -46 -5 -31 -55 -137 -64 -137 -5 0 -9 -6 -9 -13 0 -17 -38 -49 -80 -67
-62 -27 -174 -89 -221 -123 -50 -36 -205 -90 -244 -85 -24 3 -24 4 -11 31 8
15 13 27 10 27 -6 0 28 62 37 70 8 6 91 170 180 355 10 22 30 78 43 125 14 47
40 130 59 185 19 55 38 117 41 137 5 30 43 120 105 248 4 8 8 33 10 55 1 21
11 60 23 85 11 25 22 52 24 60 1 8 5 29 9 45 4 17 8 41 10 55 2 14 10 51 19
82 9 31 19 83 22 115 14 131 2 386 -21 448 -8 22 -17 51 -19 65 -3 14 -13 50
-21 80 -9 30 -18 62 -20 71 -2 9 -13 35 -24 58 -12 22 -19 41 -16 41 7 0 -30
54 -62 90 -12 14 -38 57 -57 95 -37 72 -86 134 -121 152 -19 10 -43 10 -70 0
-14 -6 -26 -65 -14 -72 4 -3 6 -16 4 -30 -1 -14 1 -25 5 -25 4 0 11 -12 14
-26 4 -14 28 -60 54 -102 42 -68 58 -108 104 -262 6 -19 14 -46 19 -60 8 -27
6 -150 -5 -190 -3 -14 -9 -39 -12 -57 -9 -47 -30 -61 -39 -26 -5 16 -7 32 -7
36 1 4 -3 17 -9 29 -11 21 -12 27 -24 141 -4 37 -12 73 -19 80 -11 11 -69 106
-72 117 0 3 -6 18 -12 33 -7 16 -12 32 -12 36 0 10 -102 145 -112 149 -5 2 -8
9 -8 16 0 7 -25 44 -55 82 -30 38 -67 87 -82 109 -16 21 -42 53 -59 70 -17 16
-35 38 -40 47 -9 16 -92 90 -149 133 -14 11 -76 66 -137 122 -119 109 -164
132 -232 119 -31 -6 -36 -11 -42 -42 -8 -43 5 -69 64 -133 63 -67 122 -138
122 -147 0 -4 17 -26 38 -49 20 -22 55 -68 77 -100 22 -32 54 -74 71 -94 17
-20 37 -48 45 -63 8 -15 38 -70 67 -123 28 -52 52 -100 52 -105 0 -6 4 -10 9
-10 5 0 16 -35 26 -77 9 -43 25 -94 35 -113 11 -20 24 -56 30 -80 6 -25 13
-54 16 -65 3 -11 7 -45 8 -75 1 -30 5 -62 8 -70 11 -26 19 -73 23 -125 2 -27
11 -75 19 -105 13 -46 20 -160 10 -160 -1 0 -23 19 -47 43 -24 23 -53 49 -63
57 -10 9 -36 30 -56 48 -20 18 -46 35 -57 37 -12 2 -27 7 -33 11 -15 9 -38 9
-96 -1 -33 -6 -44 -13 -48 -32 -8 -31 7 -59 60 -116 62 -65 86 -98 80 -108 -3
-5 -2 -8 3 -7 19 6 143 -153 159 -204 3 -12 8 -42 10 -67 3 -46 13 -103 22
-131 3 -8 6 -46 6 -85 1 -38 4 -75 8 -81 4 -5 5 -28 2 -50 -3 -21 -5 -55 -6
-74 0 -19 -4 -43 -9 -52 -5 -9 -11 -41 -13 -70 -5 -56 -44 -199 -73 -268 l-18
-42 -45 7 c-96 16 -144 13 -198 -11 l-53 -23 7 22 c4 12 23 38 43 58 43 44 54
58 71 90 7 13 25 36 41 51 16 15 29 33 29 40 0 7 8 27 17 43 23 41 26 221 3
235 -19 12 -37 -4 -45 -40 -3 -15 -31 -55 -62 -88 -44 -48 -61 -77 -84 -143
-16 -46 -35 -88 -41 -93 -7 -6 -10 -7 -6 -3 11 14 -19 106 -52 157 -20 31 -29
56 -26 68 7 21 -32 45 -53 33 -18 -11 -32 -68 -37 -153 -5 -73 -4 -81 26 -135
17 -31 33 -71 35 -87 1 -17 6 -42 9 -56 7 -25 -3 -46 -86 -182 -24 -37 -56
-64 -66 -54 -9 9 17 58 27 51 9 -5 22 57 25 120 2 35 -27 116 -86 246 -15 31
-28 69 -31 85 -8 45 -16 61 -35 61 -9 0 -22 -7 -29 -16 -11 -14 -12 -14 -13 1
0 9 -21 37 -47 63 -43 40 -53 45 -88 43 l-40 -3 -1 -145 c-3 -245 -3 -248 -19
-262 -8 -7 -21 -19 -30 -26 -13 -11 -14 -17 -4 -29 16 -19 13 -78 -6 -120 -9
-18 -17 -47 -19 -65 -2 -18 -8 -46 -15 -61 -6 -16 -11 -32 -11 -36 0 -5 -7
-14 -15 -21 -12 -10 -17 -8 -26 13 -13 29 -32 39 -55 30 -13 -5 -15 -20 -13
-82 2 -42 7 -88 12 -103 7 -22 4 -33 -12 -54 -12 -15 -21 -32 -21 -38 0 -6
-13 -27 -28 -46 -46 -57 -73 -107 -66 -124 4 -10 1 -16 -7 -16 -7 0 -10 3 -7
6 4 3 0 21 -8 39 -8 19 -14 49 -14 66 0 37 -44 119 -64 119 -8 0 -16 7 -20 15
-3 8 -12 15 -19 15 -15 0 -47 31 -44 42 1 3 -13 24 -31 44 l-34 38 -19 -24
c-10 -14 -19 -32 -19 -41 0 -9 -7 -33 -15 -53 -8 -20 -15 -38 -15 -41 0 -21
-2 -25 -14 -25 -11 0 -13 -17 -12 -75 3 -80 3 -80 -57 -90 -12 -3 -46 -16 -75
-30 -28 -14 -54 -25 -56 -25 -2 0 4 17 14 38 31 66 44 171 29 243 -17 81 -78
120 -65 40 4 -20 9 -71 12 -113 6 -74 4 -81 -31 -153 -36 -75 -45 -89 -95
-146 l-26 -29 -2 75 c-1 45 2 75 8 75 19 0 5 25 -25 44 -45 28 -94 25 -141
-10 -40 -30 -73 -64 -74 -76 0 -4 -5 -19 -12 -35 -17 -42 -17 -51 -3 -63 21
-18 8 -40 -59 -103 l-61 -58 -3 52 c-4 64 3 94 26 118 57 60 64 70 57 90 -8
26 -26 27 -56 2 -33 -26 -52 -14 -78 51 -23 58 -70 98 -112 98 -15 0 -39 -13
-58 -32 -59 -57 -19 -99 46 -48 14 11 28 18 32 16 19 -12 52 -101 54 -145 1
-43 -4 -55 -40 -103 -22 -29 -48 -67 -57 -85 -22 -44 -54 -31 -47 19 1 6 -40
2 -43 -4 0 -2 -13 -28 -28 -58 -16 -30 -28 -60 -28 -66 0 -7 -8 -29 -17 -50
-9 -22 -16 -42 -15 -46 1 -5 -3 -8 -8 -8 -6 0 -10 13 -10 28 0 15 -5 33 -10
38 -21 21 -38 230 -18 218 7 -4 8 -3 4 5 -12 18 48 133 93 176 22 22 41 47 41
57 0 25 -42 16 -87 -19 -35 -27 -43 -29 -98 -25 -33 2 -62 6 -64 8 -2 2 3 20
11 41 8 21 13 47 11 58 -2 11 -5 41 -7 66 -2 25 -11 60 -20 78 -23 44 -105
121 -122 114 -7 -3 -16 -21 -20 -41 -4 -21 -8 -46 -11 -57 -2 -11 -4 -46 -4
-78 -1 -60 14 -95 55 -128 16 -13 18 -20 8 -31 -6 -8 -9 -17 -6 -21 3 -3 0
-16 -7 -29 -7 -12 -12 -26 -11 -30 1 -5 -2 -8 -7 -8 -5 0 -14 -13 -19 -30 -10
-28 -13 -29 -39 -19 -15 6 -35 16 -43 24 -8 7 -33 15 -55 18 -22 3 -52 7 -68
10 -22 3 -28 0 -33 -19 -3 -12 -2 -28 2 -35 4 -7 8 -32 10 -57 2 -52 21 -75
92 -112 36 -20 47 -31 47 -50 1 -27 -31 -90 -46 -90 -12 0 -30 36 -21 45 4 3
-1 12 -11 20 -19 14 -69 2 -100 -24 -14 -11 -32 -17 -59 -20 -4 -1 -20 -15
-36 -32 -29 -31 -30 -31 -41 -11 -8 15 -8 24 2 34 23 25 57 77 57 88 0 5 9 19
21 31 18 18 20 29 15 78 -5 48 -2 68 17 112 17 40 23 70 21 117 -2 69 -1 67
-30 76 -13 4 -27 -1 -40 -12 -11 -10 -26 -16 -33 -14 -9 3 -11 0 -6 -8 6 -10
4 -12 -9 -7 -10 4 -15 3 -11 -3 9 -15 -24 -58 -51 -64 -14 -4 -30 -18 -36 -31
-6 -14 -15 -25 -20 -25 -5 0 -7 -3 -4 -8 2 -4 -2 -15 -9 -25 -11 -15 -13 -12
-13 25 -4 222 -8 258 -27 273 -11 8 -23 15 -27 15 -4 0 -24 -25 -45 -55 -41
-59 -52 -65 -70 -36 -23 37 -160 54 -201 25 -33 -23 -27 -3 13 39 20 21 40 56
47 81 6 25 15 43 18 41 4 -2 4 9 2 26 -6 39 -21 47 -43 21 -16 -21 -17 -20
-24 58 -11 121 -43 130 -90 25 -22 -51 -22 -53 -11 -210 4 -57 -10 -105 -30
-105 -8 0 -14 -9 -14 -19 0 -11 -4 -22 -9 -25 -13 -8 -19 69 -16 214 2 134 8
156 61 231 31 42 33 50 30 114 -4 70 -21 100 -51 88 -13 -5 -44 -71 -49 -106
-6 -40 -15 -24 -15 28 0 31 -4 62 -9 68 -5 7 -12 29 -16 49 -4 21 -18 50 -32
65 -14 15 -28 40 -31 55 -6 31 -40 48 -54 27 -17 -26 -6 -134 21 -220 18 -57
23 -86 16 -91 -7 -5 -6 -8 4 -8 8 0 20 -11 27 -25 16 -36 -1 -31 -45 13 -54
54 -68 63 -86 56 -9 -3 -16 -15 -16 -25 0 -31 60 -128 96 -157 32 -25 50 -73
22 -55 -7 4 -20 8 -28 8 -8 0 -23 15 -32 34 -23 46 -44 57 -58 32 -12 -23 2
-68 28 -87 11 -9 12 -13 4 -14 -19 0 14 -60 33 -60 18 0 18 -5 4 -31 -5 -11
-15 -17 -20 -13 -24 15 -69 100 -69 130 0 18 -4 36 -10 39 -5 3 -10 15 -10 25
0 23 -31 42 -49 31 -6 -4 -13 -19 -15 -32 -3 -27 -37 -89 -48 -89 -5 0 -8 8
-8 17 0 9 -9 26 -19 37 -26 28 -28 44 -8 88 16 39 16 89 -3 156 -7 28 -22 45
-59 69 -37 24 -51 40 -56 65 -4 18 -12 38 -17 45 -6 7 -12 27 -14 45 -5 35
-15 309 -14 367 1 30 -25 71 -45 71 -4 0 -26 -20 -51 -44 -24 -24 -48 -46 -52
-48 -5 -1 -24 -41 -42 -88 -51 -133 -53 -137 -112 -153 -73 -21 -99 -23 -125
-9 -67 37 -98 -10 -90 -138 6 -98 0 -140 -19 -140 -18 0 -26 -35 -20 -90 2
-25 5 -50 5 -57 1 -7 10 -20 20 -30 26 -24 65 -143 47 -143 -38 0 -201 123
-218 165 -7 16 -20 38 -29 48 -10 11 -32 47 -50 80 -18 34 -46 82 -62 106 -36
52 -79 161 -113 285 -13 48 -27 92 -29 97 -3 4 -7 40 -10 79 -2 40 -8 77 -12
83 -5 7 -8 35 -7 62 2 28 3 88 3 135 0 47 8 112 17 145 8 33 16 80 16 105 2
72 60 168 165 273 15 15 28 31 28 36 0 16 86 111 101 111 9 0 14 11 14 33 0
34 -12 59 -26 58 -5 -1 -28 1 -52 5 -69 10 -104 -10 -249 -152 -40 -39 -73
-70 -74 -70 -8 8 -7 94 1 127 16 62 20 87 25 142 2 26 7 52 10 58 4 6 9 38 11
72 8 127 12 153 27 192 8 22 18 54 22 70 4 17 12 37 19 45 14 16 42 104 51
159 3 19 25 64 49 100 24 36 46 78 49 92 6 23 68 124 86 139 3 3 11 13 16 22
28 47 126 185 142 199 10 9 36 41 58 69 22 29 68 82 103 117 35 34 60 68 57
74 -4 5 -7 26 -7 45 l0 35 -61 -2 c-34 -1 -68 -7 -75 -13z m4983 -3228 c-4
-19 -15 -33 -62 -86 -7 -7 -13 -17 -13 -20 0 -17 -100 -125 -152 -166 -59 -45
-84 -50 -109 -20 -15 18 -105 19 -116 1 -13 -21 -65 -57 -74 -51 -5 3 -9 0 -9
-5 0 -6 -5 -11 -11 -11 -7 0 -4 10 6 26 25 39 71 84 84 84 6 0 14 6 17 14 3 8
31 22 62 31 80 24 150 61 182 95 18 20 175 130 186 130 8 0 11 -8 9 -22z
m-531 -40 c30 -67 28 -133 -3 -158 -4 -3 -21 -27 -39 -55 l-33 -50 5 35 c2 19
10 58 16 85 6 28 13 69 15 92 4 43 13 83 20 83 2 0 11 -15 19 -32z m-3507
-305 c16 -36 34 -63 55 -83 14 -12 18 -34 18 -115 1 -55 1 -103 1 -107 -1 -5
-1 -11 0 -14 1 -10 -24 -23 -33 -18 -7 5 -2 54 9 84 18 46 0 138 -37 188 -16
22 -26 42 -24 45 3 3 -4 8 -15 12 -21 6 -26 16 -14 28 13 14 29 6 40 -20z
m-1679 -35 l21 -23 -23 -38 c-21 -35 -24 -36 -38 -20 -23 27 -28 51 -18 78 12
31 30 32 58 3z m288 -93 c20 -14 42 -25 49 -25 12 0 61 -20 150 -60 22 -10 63
-25 92 -33 70 -21 93 -35 93 -55 0 -10 9 -25 20 -35 21 -18 26 -37 10 -37 -5
0 -10 -6 -10 -14 0 -8 11 -13 28 -12 23 1 27 5 27 31 0 19 6 31 16 33 20 4
201 -89 207 -106 6 -18 -135 -10 -198 11 -25 8 -58 18 -73 21 -15 4 -35 15
-45 26 -9 11 -21 20 -28 20 -6 0 -35 13 -64 29 -44 24 -56 27 -64 16 -9 -11
-27 -8 -101 13 -77 23 -92 31 -104 56 -17 37 -70 96 -86 96 -23 0 -62 -55 -63
-87 0 -18 -1 -47 -1 -64 l-1 -31 -45 44 c-24 24 -39 44 -32 46 22 5 79 101 77
130 -1 15 -2 32 -1 38 1 15 100 -19 147 -51z m1767 -109 c22 -2 52 0 68 4 29
9 34 5 30 -30 -1 -8 -5 -22 -8 -30 -11 -28 -10 -53 2 -79 29 -61 65 -157 65
-174 0 -4 -16 10 -35 32 -28 31 -45 40 -83 46 -26 4 -50 11 -53 16 -3 6 -2 31
3 57 10 52 11 82 5 88 -2 3 -26 -3 -52 -11 -44 -15 -48 -15 -66 1 -10 9 -19
25 -19 35 0 10 -4 21 -10 24 -16 10 -12 23 8 27 18 4 82 2 145 -6z m957 -184
c21 3 31 0 34 -11 8 -26 11 -179 4 -186 -3 -4 -16 -1 -28 5 -22 12 -107 15
-147 6 -29 -6 -29 6 1 89 26 73 71 122 93 103 7 -5 26 -8 43 -6z m-2520 -190
c25 -11 74 -30 110 -42 90 -31 170 -69 175 -83 10 -29 13 -77 5 -82 -5 -3 -49
21 -99 52 -103 66 -146 91 -213 128 -27 14 -48 29 -48 34 0 11 11 21 19 17 3
-2 26 -13 51 -24z m518 -188 c20 -10 42 -18 47 -19 44 -12 62 -27 79 -69 23
-59 17 -76 -26 -70 -56 8 -122 34 -153 59 -26 22 -28 27 -18 44 8 13 9 22 3
26 -6 3 -10 15 -10 26 0 24 27 25 78 3z m4522 -26 c0 -4 9 -8 21 -8 18 0 16
-4 -15 -32 -20 -17 -36 -37 -36 -44 0 -6 -6 -16 -13 -22 -7 -6 -14 -33 -16
-59 -2 -46 -14 -73 -32 -73 -5 0 -9 25 -9 55 l0 55 -33 0 c-40 0 -69 -19 -98
-67 -19 -30 -23 -49 -21 -104 2 -61 1 -68 -23 -83 -36 -23 -47 -12 -29 30 14
33 13 78 -2 117 -12 32 -90 14 -139 -31 -30 -27 -41 -53 -39 -92 0 -19 -3 -38
-9 -41 -5 -4 0 -10 11 -13 32 -11 16 -36 -23 -36 -31 0 -55 23 -36 34 5 3 9
16 10 28 1 13 3 37 4 53 4 57 -60 35 -108 -38 -19 -30 -46 -35 -65 -12 -7 8
-19 15 -26 15 -30 0 -12 32 32 58 52 31 193 139 210 161 7 9 10 20 8 26 -4 9
60 35 88 35 6 0 19 6 27 14 9 8 27 17 41 19 14 3 39 11 55 18 83 35 265 61
265 37z m-4432 -187 c10 -5 38 -12 62 -16 60 -9 63 -12 56 -51 -5 -26 -1 -42
20 -73 14 -22 35 -43 45 -46 11 -4 19 -10 19 -15 0 -5 -6 -7 -12 -5 -7 2 -42
7 -77 9 -56 5 -69 10 -98 38 -56 54 -67 92 -48 156 5 14 11 15 33 3z m-60
-150 c26 -22 28 -46 5 -48 -10 0 -48 -3 -85 -6 -47 -3 -73 -1 -85 9 -17 12
-17 14 7 31 14 10 45 21 70 24 25 3 50 7 56 7 6 1 21 -6 32 -17z m82 -106 c-7
-8 -19 -15 -26 -15 -8 0 -14 -3 -14 -7 0 -9 -190 -6 -199 3 -15 14 34 23 128
23 56 0 106 2 109 5 12 13 14 5 2 -9z m130 7 c0 -11 -38 -31 -67 -37 -35 -6
-27 4 20 25 49 23 47 22 47 12z m-455 -12 c19 0 19 0 0 -13 -12 -8 -43 -12
-80 -11 -33 1 -73 3 -89 3 -29 1 -29 2 -10 16 14 12 36 14 89 11 39 -3 79 -6
90 -6z m4062 -852 c32 -31 43 -58 24 -58 -5 0 -16 -3 -25 -6 -11 -4 -16 0 -16
12 0 11 -9 34 -20 52 -26 42 -6 42 37 0z m-1842 -46 c11 -25 48 -35 113 -31
31 2 58 -3 80 -14 31 -17 36 -17 77 -2 55 22 80 15 32 -8 -20 -10 -42 -30 -49
-45 -7 -15 -30 -36 -51 -47 -20 -11 -37 -26 -37 -32 0 -19 -14 -16 -81 16 -48
23 -67 27 -95 21 -23 -5 -34 -4 -35 4 -1 6 -2 50 -3 98 -1 85 0 87 19 74 11
-7 24 -22 30 -34z"/>
<path d="M4641 4314 c0 -11 3 -14 6 -6 3 7 2 16 -1 19 -3 4 -6 -2 -5 -13z"/>
<path d="M7683 1775 c-18 -20 -17 -22 17 -34 32 -11 33 -9 24 27 -7 25 -23 28
-41 7z"/>
</g>
</svg>
